<svg height="5070" width="720" xmlns="http://www.w3.org/2000/svg">
<rect height="5070" fill="#555" width="720"></rect>
<text fill="#7f7" font-family="Courier New" font-size="12" xml:space="preserve">
<tspan x="10" y="26">38 megabytes installed</tspan>
<tspan x="10" y="42"></tspan>
<tspan x="10" y="58">node_modules</tspan>
<tspan x="10" y="74">└─┬ nodeunit@0.11.0 </tspan>
<tspan x="10" y="90">  ├── ejs@2.5.6 </tspan>
<tspan x="10" y="106">  └─┬ tap@10.3.2 </tspan>
<tspan x="10" y="122">    ├── bind-obj-methods@1.0.0 </tspan>
<tspan x="10" y="138">    ├── bluebird@3.5.0 </tspan>
<tspan x="10" y="154">    ├── clean-yaml-object@0.1.0 </tspan>
<tspan x="10" y="170">    ├── color-support@1.1.2 </tspan>
<tspan x="10" y="186">    ├─┬ coveralls@2.13.0 </tspan>
<tspan x="10" y="202">    │ ├─┬ js-yaml@3.6.1 </tspan>
<tspan x="10" y="218">    │ │ └── esprima@2.7.3 </tspan>
<tspan x="10" y="234">    │ ├── lcov-parse@0.0.10 </tspan>
<tspan x="10" y="250">    │ ├── log-driver@1.2.5 </tspan>
<tspan x="10" y="266">    │ ├── minimist@1.2.0 </tspan>
<tspan x="10" y="282">    │ └─┬ request@2.79.0 </tspan>
<tspan x="10" y="298">    │   ├── aws-sign2@0.6.0 </tspan>
<tspan x="10" y="314">    │   ├── aws4@1.6.0 </tspan>
<tspan x="10" y="330">    │   ├── caseless@0.11.0 </tspan>
<tspan x="10" y="346">    │   ├─┬ combined-stream@1.0.5 </tspan>
<tspan x="10" y="362">    │   │ └── delayed-stream@1.0.0 </tspan>
<tspan x="10" y="378">    │   ├── extend@3.0.0 </tspan>
<tspan x="10" y="394">    │   ├── forever-agent@0.6.1 </tspan>
<tspan x="10" y="410">    │   ├─┬ form-data@2.1.4 </tspan>
<tspan x="10" y="426">    │   │ └── asynckit@0.4.0 </tspan>
<tspan x="10" y="442">    │   ├─┬ har-validator@2.0.6 </tspan>
<tspan x="10" y="458">    │   │ ├─┬ chalk@1.1.3 </tspan>
<tspan x="10" y="474">    │   │ │ ├── ansi-styles@2.2.1 </tspan>
<tspan x="10" y="490">    │   │ │ ├── has-ansi@2.0.0 </tspan>
<tspan x="10" y="506">    │   │ │ └── supports-color@2.0.0 </tspan>
<tspan x="10" y="522">    │   │ ├─┬ commander@2.9.0 </tspan>
<tspan x="10" y="538">    │   │ │ └── graceful-readlink@1.0.1 </tspan>
<tspan x="10" y="554">    │   │ ├─┬ is-my-json-valid@2.16.0 </tspan>
<tspan x="10" y="570">    │   │ │ ├── generate-function@2.0.0 </tspan>
<tspan x="10" y="586">    │   │ │ ├─┬ generate-object-property@1.2.0 </tspan>
<tspan x="10" y="602">    │   │ │ │ └── is-property@1.0.2 </tspan>
<tspan x="10" y="618">    │   │ │ ├── jsonpointer@4.0.1 </tspan>
<tspan x="10" y="634">    │   │ │ └── xtend@4.0.1 </tspan>
<tspan x="10" y="650">    │   │ └─┬ pinkie-promise@2.0.1 </tspan>
<tspan x="10" y="666">    │   │   └── pinkie@2.0.4 </tspan>
<tspan x="10" y="682">    │   ├─┬ hawk@3.1.3 </tspan>
<tspan x="10" y="698">    │   │ ├── boom@2.10.1 </tspan>
<tspan x="10" y="714">    │   │ ├── cryptiles@2.0.5 </tspan>
<tspan x="10" y="730">    │   │ ├── hoek@2.16.3 </tspan>
<tspan x="10" y="746">    │   │ └── sntp@1.0.9 </tspan>
<tspan x="10" y="762">    │   ├─┬ http-signature@1.1.1 </tspan>
<tspan x="10" y="778">    │   │ ├── assert-plus@0.2.0 </tspan>
<tspan x="10" y="794">    │   │ ├─┬ jsprim@1.4.0 </tspan>
<tspan x="10" y="810">    │   │ │ ├── assert-plus@1.0.0 </tspan>
<tspan x="10" y="826">    │   │ │ ├── extsprintf@1.0.2 </tspan>
<tspan x="10" y="842">    │   │ │ ├── json-schema@0.2.3 </tspan>
<tspan x="10" y="858">    │   │ │ └── verror@1.3.6 </tspan>
<tspan x="10" y="874">    │   │ └─┬ sshpk@1.13.0 </tspan>
<tspan x="10" y="890">    │   │   ├── asn1@0.2.3 </tspan>
<tspan x="10" y="906">    │   │   ├── assert-plus@1.0.0 </tspan>
<tspan x="10" y="922">    │   │   ├── bcrypt-pbkdf@1.0.1 </tspan>
<tspan x="10" y="938">    │   │   ├─┬ dashdash@1.14.1 </tspan>
<tspan x="10" y="954">    │   │   │ └── assert-plus@1.0.0 </tspan>
<tspan x="10" y="970">    │   │   ├── ecc-jsbn@0.1.1 </tspan>
<tspan x="10" y="986">    │   │   ├─┬ getpass@0.1.6 </tspan>
<tspan x="10" y="1002">    │   │   │ └── assert-plus@1.0.0 </tspan>
<tspan x="10" y="1018">    │   │   ├── jodid25519@1.0.2 </tspan>
<tspan x="10" y="1034">    │   │   ├── jsbn@0.1.1 </tspan>
<tspan x="10" y="1050">    │   │   └── tweetnacl@0.14.5 </tspan>
<tspan x="10" y="1066">    │   ├── is-typedarray@1.0.0 </tspan>
<tspan x="10" y="1082">    │   ├── isstream@0.1.2 </tspan>
<tspan x="10" y="1098">    │   ├── json-stringify-safe@5.0.1 </tspan>
<tspan x="10" y="1114">    │   ├─┬ mime-types@2.1.15 </tspan>
<tspan x="10" y="1130">    │   │ └── mime-db@1.27.0 </tspan>
<tspan x="10" y="1146">    │   ├── oauth-sign@0.8.2 </tspan>
<tspan x="10" y="1162">    │   ├── qs@6.3.2 </tspan>
<tspan x="10" y="1178">    │   ├── stringstream@0.0.5 </tspan>
<tspan x="10" y="1194">    │   ├── tough-cookie@2.3.2 </tspan>
<tspan x="10" y="1210">    │   ├── tunnel-agent@0.4.3 </tspan>
<tspan x="10" y="1226">    │   └── uuid@3.0.1 </tspan>
<tspan x="10" y="1242">    ├── deeper@2.1.0 </tspan>
<tspan x="10" y="1258">    ├─┬ foreground-child@1.5.6 </tspan>
<tspan x="10" y="1274">    │ └─┬ cross-spawn@4.0.2 </tspan>
<tspan x="10" y="1290">    │   ├─┬ lru-cache@4.0.2 </tspan>
<tspan x="10" y="1306">    │   │ ├── pseudomap@1.0.2 </tspan>
<tspan x="10" y="1322">    │   │ └── yallist@2.1.2 </tspan>
<tspan x="10" y="1338">    │   └─┬ which@1.2.14 </tspan>
<tspan x="10" y="1354">    │     └── isexe@2.0.0 </tspan>
<tspan x="10" y="1370">    ├── fs-exists-cached@1.0.0 </tspan>
<tspan x="10" y="1386">    ├── function-loop@1.0.1 </tspan>
<tspan x="10" y="1402">    ├─┬ glob@7.1.1 </tspan>
<tspan x="10" y="1418">    │ ├── fs.realpath@1.0.0 </tspan>
<tspan x="10" y="1434">    │ ├─┬ inflight@1.0.6 </tspan>
<tspan x="10" y="1450">    │ │ └── wrappy@1.0.2 </tspan>
<tspan x="10" y="1466">    │ ├── inherits@2.0.3 </tspan>
<tspan x="10" y="1482">    │ ├─┬ minimatch@3.0.3 </tspan>
<tspan x="10" y="1498">    │ │ └─┬ brace-expansion@1.1.7 </tspan>
<tspan x="10" y="1514">    │ │   ├── balanced-match@0.4.2 </tspan>
<tspan x="10" y="1530">    │ │   └── concat-map@0.0.1 </tspan>
<tspan x="10" y="1546">    │ ├── once@1.4.0 </tspan>
<tspan x="10" y="1562">    │ └── path-is-absolute@1.0.1 </tspan>
<tspan x="10" y="1578">    ├── isexe@1.1.2 </tspan>
<tspan x="10" y="1594">    ├─┬ js-yaml@3.8.3 </tspan>
<tspan x="10" y="1610">    │ ├─┬ argparse@1.0.9 </tspan>
<tspan x="10" y="1626">    │ │ └── sprintf-js@1.0.3 </tspan>
<tspan x="10" y="1642">    │ └── esprima@3.1.3 </tspan>
<tspan x="10" y="1658">    ├─┬ nyc@10.2.0 </tspan>
<tspan x="10" y="1674">    │ ├── archy@1.0.0 </tspan>
<tspan x="10" y="1690">    │ ├── arrify@1.0.1 </tspan>
<tspan x="10" y="1706">    │ ├─┬ caching-transform@1.0.1 </tspan>
<tspan x="10" y="1722">    │ │ └─┬ write-file-atomic@1.3.1 </tspan>
<tspan x="10" y="1738">    │ │   ├── graceful-fs@4.1.11 </tspan>
<tspan x="10" y="1754">    │ │   ├── imurmurhash@0.1.4 </tspan>
<tspan x="10" y="1770">    │ │   └── slide@1.1.6 </tspan>
<tspan x="10" y="1786">    │ ├── convert-source-map@1.4.0 </tspan>
<tspan x="10" y="1802">    │ ├── debug-log@1.0.1 </tspan>
<tspan x="10" y="1818">    │ ├─┬ default-require-extensions@1.0.0 </tspan>
<tspan x="10" y="1834">    │ │ └─┬ strip-bom@2.0.0 </tspan>
<tspan x="10" y="1850">    │ │   └── is-utf8@0.2.1 </tspan>
<tspan x="10" y="1866">    │ ├─┬ find-cache-dir@0.1.1 </tspan>
<tspan x="10" y="1882">    │ │ ├── commondir@1.0.1 </tspan>
<tspan x="10" y="1898">    │ │ └── pkg-dir@1.0.0 </tspan>
<tspan x="10" y="1914">    │ ├─┬ find-up@1.1.2 </tspan>
<tspan x="10" y="1930">    │ │ ├── path-exists@2.1.0 </tspan>
<tspan x="10" y="1946">    │ │ └─┬ pinkie-promise@2.0.1 </tspan>
<tspan x="10" y="1962">    │ │   └── pinkie@2.0.4 </tspan>
<tspan x="10" y="1978">    │ ├─┬ foreground-child@1.5.6 </tspan>
<tspan x="10" y="1994">    │ │ └─┬ cross-spawn@4.0.2 </tspan>
<tspan x="10" y="2010">    │ │   └─┬ lru-cache@4.0.2 </tspan>
<tspan x="10" y="2026">    │ │     ├── pseudomap@1.0.2 </tspan>
<tspan x="10" y="2042">    │ │     └── yallist@2.1.2 </tspan>
<tspan x="10" y="2058">    │ ├─┬ glob@7.1.1 </tspan>
<tspan x="10" y="2074">    │ │ ├── fs.realpath@1.0.0 </tspan>
<tspan x="10" y="2090">    │ │ ├─┬ inflight@1.0.6 </tspan>
<tspan x="10" y="2106">    │ │ │ └── wrappy@1.0.2 </tspan>
<tspan x="10" y="2122">    │ │ ├── inherits@2.0.3 </tspan>
<tspan x="10" y="2138">    │ │ ├─┬ minimatch@3.0.3 </tspan>
<tspan x="10" y="2154">    │ │ │ └─┬ brace-expansion@1.1.6 </tspan>
<tspan x="10" y="2170">    │ │ │   ├── balanced-match@0.4.2 </tspan>
<tspan x="10" y="2186">    │ │ │   └── concat-map@0.0.1 </tspan>
<tspan x="10" y="2202">    │ │ ├── once@1.4.0 </tspan>
<tspan x="10" y="2218">    │ │ └── path-is-absolute@1.0.1 </tspan>
<tspan x="10" y="2234">    │ ├── istanbul-lib-coverage@1.0.2 </tspan>
<tspan x="10" y="2250">    │ ├─┬ istanbul-lib-hook@1.0.5 </tspan>
<tspan x="10" y="2266">    │ │ └── append-transform@0.4.0 </tspan>
<tspan x="10" y="2282">    │ ├─┬ istanbul-lib-instrument@1.7.0 </tspan>
<tspan x="10" y="2298">    │ │ ├─┬ babel-generator@6.24.0 </tspan>
<tspan x="10" y="2314">    │ │ │ ├── babel-messages@6.23.0 </tspan>
<tspan x="10" y="2330">    │ │ │ ├─┬ babel-runtime@6.23.0 </tspan>
<tspan x="10" y="2346">    │ │ │ │ ├── core-js@2.4.1 </tspan>
<tspan x="10" y="2362">    │ │ │ │ └── regenerator-runtime@0.10.3 </tspan>
<tspan x="10" y="2378">    │ │ │ ├─┬ detect-indent@4.0.0 </tspan>
<tspan x="10" y="2394">    │ │ │ │ └─┬ repeating@2.0.1 </tspan>
<tspan x="10" y="2410">    │ │ │ │   └── is-finite@1.0.2 </tspan>
<tspan x="10" y="2426">    │ │ │ ├── jsesc@1.3.0 </tspan>
<tspan x="10" y="2442">    │ │ │ ├── lodash@4.17.4 </tspan>
<tspan x="10" y="2458">    │ │ │ └── trim-right@1.0.1 </tspan>
<tspan x="10" y="2474">    │ │ ├── babel-template@6.23.0 </tspan>
<tspan x="10" y="2490">    │ │ ├─┬ babel-traverse@6.23.1 </tspan>
<tspan x="10" y="2506">    │ │ │ ├─┬ babel-code-frame@6.22.0 </tspan>
<tspan x="10" y="2522">    │ │ │ │ ├─┬ chalk@1.1.3 </tspan>
<tspan x="10" y="2538">    │ │ │ │ │ ├── ansi-styles@2.2.1 </tspan>
<tspan x="10" y="2554">    │ │ │ │ │ ├── escape-string-regexp@1.0.5 </tspan>
<tspan x="10" y="2570">    │ │ │ │ │ ├── has-ansi@2.0.0 </tspan>
<tspan x="10" y="2586">    │ │ │ │ │ └── supports-color@2.0.0 </tspan>
<tspan x="10" y="2602">    │ │ │ │ └── js-tokens@3.0.1 </tspan>
<tspan x="10" y="2618">    │ │ │ ├─┬ debug@2.6.3 </tspan>
<tspan x="10" y="2634">    │ │ │ │ └── ms@0.7.2 </tspan>
<tspan x="10" y="2650">    │ │ │ ├── globals@9.17.0 </tspan>
<tspan x="10" y="2666">    │ │ │ └─┬ invariant@2.2.2 </tspan>
<tspan x="10" y="2682">    │ │ │   └── loose-envify@1.3.1 </tspan>
<tspan x="10" y="2698">    │ │ ├─┬ babel-types@6.23.0 </tspan>
<tspan x="10" y="2714">    │ │ │ ├── esutils@2.0.2 </tspan>
<tspan x="10" y="2730">    │ │ │ └── to-fast-properties@1.0.2 </tspan>
<tspan x="10" y="2746">    │ │ ├── babylon@6.16.1 </tspan>
<tspan x="10" y="2762">    │ │ └── semver@5.3.0 </tspan>
<tspan x="10" y="2778">    │ ├─┬ istanbul-lib-report@1.0.0 </tspan>
<tspan x="10" y="2794">    │ │ ├── path-parse@1.0.5 </tspan>
<tspan x="10" y="2810">    │ │ └─┬ supports-color@3.2.3 </tspan>
<tspan x="10" y="2826">    │ │   └── has-flag@1.0.0 </tspan>
<tspan x="10" y="2842">    │ ├─┬ istanbul-lib-source-maps@1.1.1 </tspan>
<tspan x="10" y="2858">    │ │ └── source-map@0.5.6 </tspan>
<tspan x="10" y="2874">    │ ├─┬ istanbul-reports@1.0.2 </tspan>
<tspan x="10" y="2890">    │ │ └─┬ handlebars@4.0.6 </tspan>
<tspan x="10" y="2906">    │ │   ├── async@1.5.2 </tspan>
<tspan x="10" y="2922">    │ │   ├─┬ optimist@0.6.1 </tspan>
<tspan x="10" y="2938">    │ │   │ └── wordwrap@0.0.3 </tspan>
<tspan x="10" y="2954">    │ │   ├─┬ source-map@0.4.4 </tspan>
<tspan x="10" y="2970">    │ │   │ └── amdefine@1.0.1 </tspan>
<tspan x="10" y="2986">    │ │   └─┬ uglify-js@2.8.16 </tspan>
<tspan x="10" y="3002">    │ │     ├── uglify-to-browserify@1.0.2 </tspan>
<tspan x="10" y="3018">    │ │     └─┬ yargs@3.10.0 </tspan>
<tspan x="10" y="3034">    │ │       ├── camelcase@1.2.1 </tspan>
<tspan x="10" y="3050">    │ │       ├─┬ cliui@2.1.0 </tspan>
<tspan x="10" y="3066">    │ │       │ ├─┬ center-align@0.1.3 </tspan>
<tspan x="10" y="3082">    │ │       │ │ ├─┬ align-text@0.1.4 </tspan>
<tspan x="10" y="3098">    │ │       │ │ │ └── longest@1.0.1 </tspan>
<tspan x="10" y="3114">    │ │       │ │ └── lazy-cache@1.0.4 </tspan>
<tspan x="10" y="3130">    │ │       │ ├── right-align@0.1.3 </tspan>
<tspan x="10" y="3146">    │ │       │ └── wordwrap@0.0.2 </tspan>
<tspan x="10" y="3162">    │ │       └── window-size@0.1.0 </tspan>
<tspan x="10" y="3178">    │ ├─┬ md5-hex@1.3.0 </tspan>
<tspan x="10" y="3194">    │ │ └── md5-o-matic@0.1.1 </tspan>
<tspan x="10" y="3210">    │ ├── merge-source-map@1.0.3 </tspan>
<tspan x="10" y="3226">    │ ├─┬ micromatch@2.3.11 </tspan>
<tspan x="10" y="3242">    │ │ ├─┬ arr-diff@2.0.0 </tspan>
<tspan x="10" y="3258">    │ │ │ └── arr-flatten@1.0.1 </tspan>
<tspan x="10" y="3274">    │ │ ├── array-unique@0.2.1 </tspan>
<tspan x="10" y="3290">    │ │ ├─┬ braces@1.8.5 </tspan>
<tspan x="10" y="3306">    │ │ │ ├─┬ expand-range@1.8.2 </tspan>
<tspan x="10" y="3322">    │ │ │ │ └─┬ fill-range@2.2.3 </tspan>
<tspan x="10" y="3338">    │ │ │ │   ├── is-number@2.1.0 </tspan>
<tspan x="10" y="3354">    │ │ │ │   ├─┬ isobject@2.1.0 </tspan>
<tspan x="10" y="3370">    │ │ │ │   │ └── isarray@1.0.0 </tspan>
<tspan x="10" y="3386">    │ │ │ │   ├── randomatic@1.1.6 </tspan>
<tspan x="10" y="3402">    │ │ │ │   └── repeat-string@1.6.1 </tspan>
<tspan x="10" y="3418">    │ │ │ ├── preserve@0.2.0 </tspan>
<tspan x="10" y="3434">    │ │ │ └── repeat-element@1.1.2 </tspan>
<tspan x="10" y="3450">    │ │ ├─┬ expand-brackets@0.1.5 </tspan>
<tspan x="10" y="3466">    │ │ │ └── is-posix-bracket@0.1.1 </tspan>
<tspan x="10" y="3482">    │ │ ├── extglob@0.3.2 </tspan>
<tspan x="10" y="3498">    │ │ ├── filename-regex@2.0.0 </tspan>
<tspan x="10" y="3514">    │ │ ├── is-extglob@1.0.0 </tspan>
<tspan x="10" y="3530">    │ │ ├── is-glob@2.0.1 </tspan>
<tspan x="10" y="3546">    │ │ ├─┬ kind-of@3.1.0 </tspan>
<tspan x="10" y="3562">    │ │ │ └── is-buffer@1.1.5 </tspan>
<tspan x="10" y="3578">    │ │ ├── normalize-path@2.0.1 </tspan>
<tspan x="10" y="3594">    │ │ ├─┬ object.omit@2.0.1 </tspan>
<tspan x="10" y="3610">    │ │ │ ├─┬ for-own@0.1.5 </tspan>
<tspan x="10" y="3626">    │ │ │ │ └── for-in@1.0.2 </tspan>
<tspan x="10" y="3642">    │ │ │ └── is-extendable@0.1.1 </tspan>
<tspan x="10" y="3658">    │ │ ├─┬ parse-glob@3.0.4 </tspan>
<tspan x="10" y="3674">    │ │ │ ├─┬ glob-base@0.3.0 </tspan>
<tspan x="10" y="3690">    │ │ │ │ └── glob-parent@2.0.0 </tspan>
<tspan x="10" y="3706">    │ │ │ └── is-dotfile@1.0.2 </tspan>
<tspan x="10" y="3722">    │ │ └─┬ regex-cache@0.4.3 </tspan>
<tspan x="10" y="3738">    │ │   ├── is-equal-shallow@0.1.3 </tspan>
<tspan x="10" y="3754">    │ │   └── is-primitive@2.0.0 </tspan>
<tspan x="10" y="3770">    │ ├─┬ mkdirp@0.5.1 </tspan>
<tspan x="10" y="3786">    │ │ └── minimist@0.0.8 </tspan>
<tspan x="10" y="3802">    │ ├── resolve-from@2.0.0 </tspan>
<tspan x="10" y="3818">    │ ├── rimraf@2.6.1 </tspan>
<tspan x="10" y="3834">    │ ├── signal-exit@3.0.2 </tspan>
<tspan x="10" y="3850">    │ ├─┬ spawn-wrap@1.2.4 </tspan>
<tspan x="10" y="3866">    │ │ ├── os-homedir@1.0.2 </tspan>
<tspan x="10" y="3882">    │ │ ├── signal-exit@2.1.2 </tspan>
<tspan x="10" y="3898">    │ │ └─┬ which@1.2.14 </tspan>
<tspan x="10" y="3914">    │ │   └── isexe@2.0.0 </tspan>
<tspan x="10" y="3930">    │ ├─┬ test-exclude@4.0.3 </tspan>
<tspan x="10" y="3946">    │ │ ├── object-assign@4.1.1 </tspan>
<tspan x="10" y="3962">    │ │ ├─┬ read-pkg-up@1.0.1 </tspan>
<tspan x="10" y="3978">    │ │ │ └─┬ read-pkg@1.1.0 </tspan>
<tspan x="10" y="3994">    │ │ │   ├─┬ load-json-file@1.1.0 </tspan>
<tspan x="10" y="4010">    │ │ │   │ ├─┬ parse-json@2.2.0 </tspan>
<tspan x="10" y="4026">    │ │ │   │ │ └─┬ error-ex@1.3.1 </tspan>
<tspan x="10" y="4042">    │ │ │   │ │   └── is-arrayish@0.2.1 </tspan>
<tspan x="10" y="4058">    │ │ │   │ └── pify@2.3.0 </tspan>
<tspan x="10" y="4074">    │ │ │   ├─┬ normalize-package-data@2.3.6 </tspan>
<tspan x="10" y="4090">    │ │ │   │ ├── hosted-git-info@2.4.1 </tspan>
<tspan x="10" y="4106">    │ │ │   │ ├─┬ is-builtin-module@1.0.0 </tspan>
<tspan x="10" y="4122">    │ │ │   │ │ └── builtin-modules@1.1.1 </tspan>
<tspan x="10" y="4138">    │ │ │   │ └─┬ validate-npm-package-license@3.0.1 </tspan>
<tspan x="10" y="4154">    │ │ │   │   ├─┬ spdx-correct@1.0.2 </tspan>
<tspan x="10" y="4170">    │ │ │   │   │ └── spdx-license-ids@1.2.2 </tspan>
<tspan x="10" y="4186">    │ │ │   │   └── spdx-expression-parse@1.0.4 </tspan>
<tspan x="10" y="4202">    │ │ │   └── path-type@1.1.0 </tspan>
<tspan x="10" y="4218">    │ │ └── require-main-filename@1.0.1 </tspan>
<tspan x="10" y="4234">    │ ├─┬ yargs@7.0.2 </tspan>
<tspan x="10" y="4250">    │ │ ├── camelcase@3.0.0 </tspan>
<tspan x="10" y="4266">    │ │ ├─┬ cliui@3.2.0 </tspan>
<tspan x="10" y="4282">    │ │ │ └── wrap-ansi@2.1.0 </tspan>
<tspan x="10" y="4298">    │ │ ├── decamelize@1.2.0 </tspan>
<tspan x="10" y="4314">    │ │ ├── get-caller-file@1.0.2 </tspan>
<tspan x="10" y="4330">    │ │ ├─┬ os-locale@1.4.0 </tspan>
<tspan x="10" y="4346">    │ │ │ └─┬ lcid@1.0.0 </tspan>
<tspan x="10" y="4362">    │ │ │   └── invert-kv@1.0.0 </tspan>
<tspan x="10" y="4378">    │ │ ├── require-directory@2.1.1 </tspan>
<tspan x="10" y="4394">    │ │ ├── set-blocking@2.0.0 </tspan>
<tspan x="10" y="4410">    │ │ ├─┬ string-width@1.0.2 </tspan>
<tspan x="10" y="4426">    │ │ │ ├── code-point-at@1.1.0 </tspan>
<tspan x="10" y="4442">    │ │ │ ├─┬ is-fullwidth-code-point@1.0.0 </tspan>
<tspan x="10" y="4458">    │ │ │ │ └── number-is-nan@1.0.1 </tspan>
<tspan x="10" y="4474">    │ │ │ └─┬ strip-ansi@3.0.1 </tspan>
<tspan x="10" y="4490">    │ │ │   └── ansi-regex@2.1.1 </tspan>
<tspan x="10" y="4506">    │ │ ├── which-module@1.0.0 </tspan>
<tspan x="10" y="4522">    │ │ ├── y18n@3.2.1 </tspan>
<tspan x="10" y="4538">    │ │ └── yargs-parser@5.0.0 </tspan>
<tspan x="10" y="4554">    │ └─┬ yargs-parser@4.2.1 </tspan>
<tspan x="10" y="4570">    │   └── camelcase@3.0.0 </tspan>
<tspan x="10" y="4586">    ├── only-shallow@1.2.0 </tspan>
<tspan x="10" y="4602">    ├── opener@1.4.3 </tspan>
<tspan x="10" y="4618">    ├── os-homedir@1.0.1 </tspan>
<tspan x="10" y="4634">    ├── own-or@1.0.0 </tspan>
<tspan x="10" y="4650">    ├── own-or-env@1.0.0 </tspan>
<tspan x="10" y="4666">    ├─┬ readable-stream@2.2.9 </tspan>
<tspan x="10" y="4682">    │ ├── buffer-shims@1.0.0 </tspan>
<tspan x="10" y="4698">    │ ├── core-util-is@1.0.2 </tspan>
<tspan x="10" y="4714">    │ ├── isarray@1.0.0 </tspan>
<tspan x="10" y="4730">    │ ├── process-nextick-args@1.0.7 </tspan>
<tspan x="10" y="4746">    │ ├── string_decoder@1.0.0 </tspan>
<tspan x="10" y="4762">    │ └── util-deprecate@1.0.2 </tspan>
<tspan x="10" y="4778">    ├── signal-exit@3.0.2 </tspan>
<tspan x="10" y="4794">    ├─┬ source-map-support@0.4.14 </tspan>
<tspan x="10" y="4810">    │ └── source-map@0.5.6 </tspan>
<tspan x="10" y="4826">    ├── stack-utils@1.0.0 </tspan>
<tspan x="10" y="4842">    ├─┬ tap-mocha-reporter@3.0.3 </tspan>
<tspan x="10" y="4858">    │ ├─┬ debug@2.6.3 </tspan>
<tspan x="10" y="4874">    │ │ └── ms@0.7.2 </tspan>
<tspan x="10" y="4890">    │ ├── diff@1.4.0 </tspan>
<tspan x="10" y="4906">    │ ├── escape-string-regexp@1.0.5 </tspan>
<tspan x="10" y="4922">    │ └─┬ unicode-length@1.0.3 </tspan>
<tspan x="10" y="4938">    │   ├── punycode@1.4.1 </tspan>
<tspan x="10" y="4954">    │   └─┬ strip-ansi@3.0.1 </tspan>
<tspan x="10" y="4970">    │     └── ansi-regex@2.1.1 </tspan>
<tspan x="10" y="4986">    ├─┬ tap-parser@5.3.3 </tspan>
<tspan x="10" y="5002">    │ └── events-to-array@1.1.2 </tspan>
<tspan x="10" y="5018">    ├── tmatch@3.0.0 </tspan>
<tspan x="10" y="5034">    ├── trivial-deferred@1.0.1 </tspan>
<tspan x="10" y="5050">    └── yapool@1.0.0</tspan>
</text>
</svg>
